<svg xmlns="http://www.w3.org/2000/svg" xmlns:xlink="http://www.w3.org/1999/xlink" viewBox="0 0 500 500"><defs><style>.cls-1{fill:#1e2151;}.cls-2{opacity:0.3;fill:url(#linear-gradient);}.cls-11,.cls-12,.cls-14,.cls-2,.cls-6{mix-blend-mode:screen;}.cls-3,.cls-5,.cls-7,.cls-8{fill:none;}.cls-3,.cls-7{stroke:#ad4d9d;}.cls-3,.cls-7,.cls-8{stroke-miterlimit:10;}.cls-3{stroke-width:5.17px;}.cls-11,.cls-12,.cls-4,.cls-6{fill:#d3d030;}.cls-5{stroke:#d3d030;stroke-linejoin:round;stroke-width:15.98px;}.cls-5,.cls-7,.cls-8{stroke-linecap:round;}.cls-7{stroke-width:11.63px;}.cls-8{stroke:#4d968f;stroke-width:3.88px;}.cls-8,.cls-9{opacity:0.5;}.cls-10,.cls-9{fill:#4d968f;}.cls-11{opacity:0.9;}.cls-12{opacity:0.2;}.cls-13{isolation:isolate;}.cls-14{opacity:0.1;}</style><linearGradient id="linear-gradient" x1="281.55" y1="94.49" x2="342.22" y2="147.82" gradientUnits="userSpaceOnUse"><stop offset="0" stop-color="#d3d030" stop-opacity="0"/><stop offset="0.64" stop-color="#d3d030"/><stop offset="1" stop-color="#d3d030" stop-opacity="0"/></linearGradient><symbol id="logo" data-name="logo" viewBox="0 0 416.27 458.32"><g id="_Group_" data-name="&lt;Group&gt;"><path class="cls-1" d="M238.47,80,231,32.41c-.68-4.35,1.69-5.81,5.26-3.26L379.59,131.31c3.58,2.55,3,5.26-1.35,6l-47.45,8.47"/></g><path class="cls-2" d="M331.54,101.28c9.6,3.62,23.25,14.61,27.37,23.71-10.71-3.31-22.72-3.55-33.69-5.92-5.13,10.84-8.53,22.44-15.19,32.36-12-7.42-23.24-16.11-36.16-22.49,5.25-3.18,14.32-10,18.11-14.7,7-8.57-5.74-16.85-11.24-24.33,15.46,3.35,24.16,18.58,40.67,17.4.16-10.76-19.29-23.68-25.76-31.72"/><path class="cls-3" d="M134.45,296.59c2.51,6.1,1.39,17.37,1.68,24.51.45,10.88,1.9,21.55,3.2,32.37,2.46,20.38-1.06,38.58-2.27,58.66"/><path class="cls-4" d="M54.1,425.93c6-2.18,10.65,1.25,10.32,7.64L63.49,451c-.33,6.39-5.21,9.13-10.84,6.08L34.77,444c-4.7-4.34-3.63-9.68,2.38-11.86Z"/><path class="cls-4" d="M226.68,179.83a11.84,11.84,0,0,0,13.45,9.64L351,171.9c6.32-1,7.26-4.91,2.1-8.69L214.77,62c-5.16-3.78-8.5-1.71-7.42,4.6Z"/><path class="cls-5" d="M55.58,434.31l100.34-140.8a79.61,79.61,0,1,0-111,18.62,79.63,79.63,0,0,0,111-18.62l78.43-110"/><path class="cls-6" d="M36.68,440.25c7.06-1.79,14.66-2.23,21.45-5.1-4.31-1.6-5-2.3-5.68-6.1-5.6.25-11.55,3.93-16.84,6.22"/><polyline class="cls-6" points="52.53 425.43 72.26 409.63 121.38 332.34"/><polyline class="cls-6" points="149.55 310.72 149.81 302.67 157.49 298.83"/><polyline class="cls-6" points="168.02 283.31 169.58 273.44 178.77 272.87"/><polyline class="cls-6" points="185.76 251.4 191.99 231.15 226.13 187.1 230.91 157.49 221.36 80.12 250.01 136.48 236.64 172.78"/><path class="cls-6" d="M16.75,255.4c1.14-39.25,21.17-95.73,87.31-79.23C71.77,163,9.68,159.26,16.75,255.4Z"/><polyline class="cls-7" points="146.52 272.96 159.86 283.66 165.84 292.49 171.91 300.5"/><polyline class="cls-8" points="146.52 276.84 159.86 287.54 165.84 296.36 171.91 304.38"/><polyline class="cls-7" points="175.77 285.73 165.96 277.75 156.65 269.63"/><polyline class="cls-8" points="175.77 289.61 165.96 281.63 156.65 273.51"/><polyline class="cls-7" points="173.2 293.98 159.72 284.61 143.83 278.68"/><polyline class="cls-8" points="173.2 297.86 159.72 288.49 143.83 282.56"/><polyline class="cls-7" points="172.49 298.82 156.79 294.86 142.86 286.24"/><polyline class="cls-8" points="172.49 302.7 156.79 298.73 142.86 290.12"/><polyline class="cls-7" points="166.43 298.96 153.46 292.1 139.36 286.3"/><polyline class="cls-8" points="166.43 302.84 153.46 295.97 139.36 290.18"/><polyline class="cls-7" points="158.99 306.69 147 300.8 139.51 289.95"/><polyline class="cls-8" points="158.99 310.57 147 304.68 139.51 293.82"/><polyline class="cls-7" points="155.65 317.18 146.33 309.78 137.02 302.6"/><polyline class="cls-8" points="155.65 321.05 146.33 313.66 137.02 306.48"/><polyline class="cls-7" points="148.78 321.99 139.33 313.88 130.34 304.45"/><polyline class="cls-8" points="148.78 325.87 139.33 317.75 130.34 308.32"/><polyline class="cls-7" points="145.91 325.47 135.82 318.54 126.29 309.67"/><polyline class="cls-8" points="145.91 329.35 135.82 322.41 126.29 313.54"/><path class="cls-9" d="M173.15,278.36a9.2,9.2,0,0,1,3.7,5.32c-3.57-.59-7.41-1-10.53-3,5.26.32,8.88,5.15,13,8.05.4-2.34-.32-4.43-1-6.93"/><path class="cls-9" d="M172,284.46c1.9,1.84,3.29,4.54,3,7a20.2,20.2,0,0,0-6.89-.54c2.38,3,7.65,5.75,11.49,7.06a9.33,9.33,0,0,0-5.24-8"/><path class="cls-9" d="M173.8,294.44c2.81-.13,3.27,3.36.49,4.51-1.63.67-5.82-2.24-6.93-3.13,0,2.29,3.27,8.92,6.14,9.05,3.42.15,5.25-6.23,2.89-8.71"/><path class="cls-9" d="M169.57,300c1.46.58,2.34,1.07,1.81,3.43-2.73,0-5.35-1.61-7.63-3.21a15.8,15.8,0,0,0,7.87,5.79,5.62,5.62,0,0,0-1.16-5"/><path class="cls-9" d="M163.54,303.41a3.61,3.61,0,0,1,.76-1.63c1.68,1.24,2,1.87,2.15,4-3.67-.85-6.28-3.68-9.91-4.49,1.39,3.29,4.09,6.76,7.91,7.62,1.2-1.34.32-1.56-.15-2.59"/><path class="cls-9" d="M153.69,303.32c3.6-.47,8,7.65,3.33,9.63-2.66,1.14-9.48-5-12-5.85-.53,4.39,6.88,13,11.67,13.91,5.65,1.1,9.36-6.75,4.11-10.83"/><path class="cls-9" d="M145.68,313.22c3.84.08,5,6.25,3.38,9.19-3.75-.93-7.08-4.08-9.36-7,1.15,2.33,2.39,4.49,2.84,6.87a7.83,7.83,0,0,1-4.77-3.71c1.51,3.57,9.54,10.05,13,9.61,8.74-1.14,2.29-10-2.38-11.93"/><path class="cls-9" d="M143.91,322.37c1.5,2,2.93,4.38,2.39,6.81a34.17,34.17,0,0,1-9.51-5c1,4.31,6.17,11.23,10.34,12.61,2.45-3.91,2.23-8,.49-12.21"/><path class="cls-3" d="M145.59,315.53c8,1.89,7.74,25.35,6.78,31.61-.78,5.13-1.82,10-2.13,15.5-.55,9.87,5,20.77,16.24,15.13"/><path class="cls-10" d="M341.92,60.18c5.68-18.09,27.68-37.15,42.72-47,4.9-3.19,19.27-10.55,17.15,1.38-1.21,6.79-9.86,9.79-14.89,12.88-12,7.37-30.59,13.23-39,25"/><path class="cls-10" d="M368.11,89.94C375.54,88.29,417.65,74,416.23,94c-3.18-.26-6.07-2.34-9.34-3.13a76.12,76.12,0,0,0-28.06-.94"/><path class="cls-10" d="M297.28,35.77c.84-10-5.42-27.47-13.65-33.32-5.33-3.8-7.17-.26-4.51,4.75,4.7,8.85,16.57,12.22,17,23.81"/><path class="cls-10" d="M325.85,44.7C329.46,31.57,318.47,8.27,333,0c9.87,8.76-.94,35.44-5.95,44.7"/><path class="cls-11" d="M217,95.4c1-7.87-3-23.26-5.8-29.92C212.67,78.65,286.13,113,276,123.4"/><path class="cls-11" d="M217,85.4a117.28,117.28,0,0,1-2.87-18.7c14.55,11.07,30.68,20.82,40.71,36.39-.82-2.57-1.23-4.81-1.84-7.39,1.72,12.61,15.67,16.9,23,25.4-8.56-4.84-15.95-10-24.11-15.69-8-5.53-29.58-11.59-33.88-20"/><path class="cls-11" d="M218,103.4c-1.38-5.56-3.88-11.22-3.84-17,9.74,7.47,17.4,20.63,26.89,29.31,5.42,5,11.13,9.43,16.82,14-1.86.54-7.39,1.15-10.58,0,5.51,6.84,10.78,14,16.39,20.82-17.55-9.29-36.41-26.73-45.68-39.15"/><path class="cls-11" d="M231,144.4c-3-6.14-4.81-11.24-3.85-17.94,9.58,7.32,34,40.19,45.85,37.94"/><path class="cls-12" d="M47,170.4c-11.73-8.36-31.5,15.92-15.82,19,14.31,2.8,28.42-21.59,8.82-19"/><path class="cls-12" d="M18,144.4c13.25,27.63,25,58.81,46,82"/><path class="cls-12" d="M0,182.4c28.38,1.5,54.79-13.05,84-6"/><path class="cls-12" d="M216,90.4c-6.62,1.31-16.68,14.63-6.58,18.22S228.12,92.34,218,86.4"/><path class="cls-12" d="M187,80.4c18.65,13.28,38.23,25,57,38"/><path class="cls-12" d="M191,115.4c14.41-.85,35.76-18.44,48-26"/><path class="cls-12" d="M392,11.4c-6.13-1.76-11.5,8.23-16.7,12.09,6-1.43,12.85-6.49,15.7-12.09"/><path class="cls-12" d="M333,8.4c-3.81-.08-4.7,7-3.77,11.7,2.93-5.39,0-11.29,5.77-14.7"/><path class="cls-12" d="M284,6.4c-1.82-6.46-10.37-5.24-8.07-1,2.49,4.57,8.24,3,13.07,3"/><path class="cls-12" d="M408,83.4a21.65,21.65,0,0,1-7.69-1c7.52-1.75,9.72,5.77,13.69,5"/></symbol></defs><title>logo</title><g class="cls-13"><g id="design"><use id="logo-3" data-name="logo" width="416.27" height="458.32" transform="translate(36.56 16.92)" xlink:href="#logo"/></g></g></svg>